<mxfile host="app.diagrams.net" agent="Mozilla/5.0 (Windows NT 10.0; Win64; x64) AppleWebKit/537.36 (KHTML, like Gecko) Chrome/135.0.0.0 Safari/537.36" version="26.2.14">
  <diagram name="Page-1" id="dRKjlCzlQj_J6LJLZjqp">
    <mxGraphModel dx="3080" dy="777" grid="1" gridSize="10" guides="1" tooltips="1" connect="1" arrows="1" fold="1" page="1" pageScale="1" pageWidth="827" pageHeight="1169" math="0" shadow="0">
      <root>
        <mxCell id="0" />
        <mxCell id="1" parent="0" />
        <mxCell id="zZvEzVsCCU_sVLsur4iH-25" value="" style="edgeStyle=orthogonalEdgeStyle;rounded=0;orthogonalLoop=1;jettySize=auto;html=1;" parent="1" source="zZvEzVsCCU_sVLsur4iH-1" target="zZvEzVsCCU_sVLsur4iH-2" edge="1">
          <mxGeometry relative="1" as="geometry" />
        </mxCell>
        <mxCell id="zZvEzVsCCU_sVLsur4iH-1" value="User Webhook - Receives Email -" style="whiteSpace=wrap;strokeWidth=2;" parent="1" vertex="1">
          <mxGeometry x="-1610" y="298" width="260" height="78" as="geometry" />
        </mxCell>
        <mxCell id="zZvEzVsCCU_sVLsur4iH-2" value="Email Classify Agent&#xa;Is Email from Notetaker?" style="whiteSpace=wrap;strokeWidth=2;" parent="1" vertex="1">
          <mxGeometry x="-1290" y="310" width="236" height="54" as="geometry" />
        </mxCell>
        <mxCell id="zZvEzVsCCU_sVLsur4iH-3" value="Notetaker Agent: Extract Tasks" style="whiteSpace=wrap;strokeWidth=2;" parent="1" vertex="1">
          <mxGeometry x="-900" y="228" width="260" height="78" as="geometry" />
        </mxCell>
        <mxCell id="zZvEzVsCCU_sVLsur4iH-4" value="Formal Email Agent: Handle Formal Workflow - Not in Scope Yet -" style="whiteSpace=wrap;strokeWidth=2;" parent="1" vertex="1">
          <mxGeometry x="-900" y="356" width="260" height="102" as="geometry" />
        </mxCell>
        <mxCell id="zZvEzVsCCU_sVLsur4iH-5" value="Action Item Correlation Agent: Find Related Items" style="whiteSpace=wrap;strokeWidth=2;" parent="1" vertex="1">
          <mxGeometry x="-570" y="228" width="260" height="78" as="geometry" />
        </mxCell>
        <mxCell id="zZvEzVsCCU_sVLsur4iH-6" value="Existing Task?" style="rhombus;strokeWidth=2;whiteSpace=wrap;" parent="1" vertex="1">
          <mxGeometry x="-250" y="192" width="150" height="150" as="geometry" />
        </mxCell>
        <mxCell id="zZvEzVsCCU_sVLsur4iH-7" value="Task Update Agent: Update Task Status - JIRA, Collab, etc. -" style="whiteSpace=wrap;strokeWidth=2;" parent="1" vertex="1">
          <mxGeometry x="-10" y="140" width="260" height="102" as="geometry" />
        </mxCell>
        <mxCell id="zZvEzVsCCU_sVLsur4iH-8" value="Task Creation Agent: Create New Task  - JIRA, Collab, etc. -" style="whiteSpace=wrap;strokeWidth=2;" parent="1" vertex="1">
          <mxGeometry x="-10" y="292" width="260" height="102" as="geometry" />
        </mxCell>
        <mxCell id="zZvEzVsCCU_sVLsur4iH-9" value="API Interaction Agent: Communicate with Task Tracker" style="whiteSpace=wrap;strokeWidth=2;" parent="1" vertex="1">
          <mxGeometry x="310" y="216" width="260" height="102" as="geometry" />
        </mxCell>
        <mxCell id="zZvEzVsCCU_sVLsur4iH-10" value="Database Update Agent: Record Success" style="whiteSpace=wrap;strokeWidth=2;" parent="1" vertex="1">
          <mxGeometry x="660" y="158" width="260" height="78" as="geometry" />
        </mxCell>
        <mxCell id="zZvEzVsCCU_sVLsur4iH-11" value="Database Update Agent: Record Failure &amp; Log Exception" style="whiteSpace=wrap;strokeWidth=2;" parent="1" vertex="1">
          <mxGeometry x="660" y="286" width="260" height="102" as="geometry" />
        </mxCell>
        <mxCell id="zZvEzVsCCU_sVLsur4iH-12" value="Response to User  - Optional Future Feature -" style="whiteSpace=wrap;strokeWidth=2;" parent="1" vertex="1">
          <mxGeometry x="970" y="228" width="260" height="78" as="geometry" />
        </mxCell>
        <mxCell id="zZvEzVsCCU_sVLsur4iH-13" value="Yes (TickTick, Fathom, etc.)" style="curved=1;startArrow=none;endArrow=block;exitX=0.89;exitY=0;entryX=0;entryY=0.5;rounded=0;" parent="1" source="zZvEzVsCCU_sVLsur4iH-2" target="zZvEzVsCCU_sVLsur4iH-3" edge="1">
          <mxGeometry relative="1" as="geometry">
            <Array as="points">
              <mxPoint x="-933" y="267" />
            </Array>
          </mxGeometry>
        </mxCell>
        <mxCell id="zZvEzVsCCU_sVLsur4iH-14" value="No (Formal Email)" style="curved=1;startArrow=none;endArrow=block;exitX=0.89;exitY=1;entryX=0;entryY=0.5;rounded=0;" parent="1" source="zZvEzVsCCU_sVLsur4iH-2" target="zZvEzVsCCU_sVLsur4iH-4" edge="1">
          <mxGeometry relative="1" as="geometry">
            <Array as="points">
              <mxPoint x="-933" y="407" />
            </Array>
          </mxGeometry>
        </mxCell>
        <mxCell id="zZvEzVsCCU_sVLsur4iH-15" value="" style="curved=1;startArrow=none;endArrow=block;exitX=1;exitY=0.5;entryX=0;entryY=0.5;rounded=0;" parent="1" source="zZvEzVsCCU_sVLsur4iH-3" target="zZvEzVsCCU_sVLsur4iH-5" edge="1">
          <mxGeometry relative="1" as="geometry">
            <Array as="points" />
          </mxGeometry>
        </mxCell>
        <mxCell id="zZvEzVsCCU_sVLsur4iH-16" value="" style="curved=1;startArrow=none;endArrow=block;exitX=1;exitY=0.5;entryX=0;entryY=0.5;rounded=0;" parent="1" source="zZvEzVsCCU_sVLsur4iH-5" target="zZvEzVsCCU_sVLsur4iH-6" edge="1">
          <mxGeometry relative="1" as="geometry">
            <Array as="points" />
          </mxGeometry>
        </mxCell>
        <mxCell id="zZvEzVsCCU_sVLsur4iH-17" value="Yes" style="curved=1;startArrow=none;endArrow=block;exitX=1;exitY=0.17;entryX=0;entryY=0.5;rounded=0;" parent="1" source="zZvEzVsCCU_sVLsur4iH-6" target="zZvEzVsCCU_sVLsur4iH-7" edge="1">
          <mxGeometry relative="1" as="geometry">
            <Array as="points">
              <mxPoint x="-16" y="191" />
            </Array>
          </mxGeometry>
        </mxCell>
        <mxCell id="zZvEzVsCCU_sVLsur4iH-18" value="No" style="curved=1;startArrow=none;endArrow=block;exitX=1;exitY=0.83;entryX=0;entryY=0.5;rounded=0;" parent="1" source="zZvEzVsCCU_sVLsur4iH-6" target="zZvEzVsCCU_sVLsur4iH-8" edge="1">
          <mxGeometry relative="1" as="geometry">
            <Array as="points">
              <mxPoint x="-16" y="343" />
            </Array>
          </mxGeometry>
        </mxCell>
        <mxCell id="zZvEzVsCCU_sVLsur4iH-19" value="" style="curved=1;startArrow=none;endArrow=block;exitX=1;exitY=0.5;entryX=0.1;entryY=0;rounded=0;" parent="1" source="zZvEzVsCCU_sVLsur4iH-7" target="zZvEzVsCCU_sVLsur4iH-9" edge="1">
          <mxGeometry relative="1" as="geometry">
            <Array as="points">
              <mxPoint x="308" y="191" />
            </Array>
          </mxGeometry>
        </mxCell>
        <mxCell id="zZvEzVsCCU_sVLsur4iH-20" value="" style="curved=1;startArrow=none;endArrow=block;exitX=1;exitY=0.5;entryX=0.1;entryY=1;rounded=0;" parent="1" source="zZvEzVsCCU_sVLsur4iH-8" target="zZvEzVsCCU_sVLsur4iH-9" edge="1">
          <mxGeometry relative="1" as="geometry">
            <Array as="points">
              <mxPoint x="308" y="343" />
            </Array>
          </mxGeometry>
        </mxCell>
        <mxCell id="zZvEzVsCCU_sVLsur4iH-21" value="Success" style="curved=1;startArrow=none;endArrow=block;exitX=1;exitY=0.02;entryX=0;entryY=0.5;rounded=0;" parent="1" source="zZvEzVsCCU_sVLsur4iH-9" target="zZvEzVsCCU_sVLsur4iH-10" edge="1">
          <mxGeometry relative="1" as="geometry">
            <Array as="points">
              <mxPoint x="647" y="197" />
            </Array>
          </mxGeometry>
        </mxCell>
        <mxCell id="zZvEzVsCCU_sVLsur4iH-22" value="Failure" style="curved=1;startArrow=none;endArrow=block;exitX=1;exitY=0.98;entryX=0;entryY=0.5;rounded=0;" parent="1" source="zZvEzVsCCU_sVLsur4iH-9" target="zZvEzVsCCU_sVLsur4iH-11" edge="1">
          <mxGeometry relative="1" as="geometry">
            <Array as="points">
              <mxPoint x="647" y="337" />
            </Array>
          </mxGeometry>
        </mxCell>
        <mxCell id="zZvEzVsCCU_sVLsur4iH-23" value="" style="curved=1;startArrow=none;endArrow=block;exitX=1;exitY=0.5;entryX=0.17;entryY=0;rounded=0;" parent="1" source="zZvEzVsCCU_sVLsur4iH-10" target="zZvEzVsCCU_sVLsur4iH-12" edge="1">
          <mxGeometry relative="1" as="geometry">
            <Array as="points">
              <mxPoint x="987" y="197" />
            </Array>
          </mxGeometry>
        </mxCell>
        <mxCell id="zZvEzVsCCU_sVLsur4iH-24" value="" style="curved=1;startArrow=none;endArrow=block;exitX=1;exitY=0.5;entryX=0.17;entryY=1;rounded=0;" parent="1" source="zZvEzVsCCU_sVLsur4iH-11" target="zZvEzVsCCU_sVLsur4iH-12" edge="1">
          <mxGeometry relative="1" as="geometry">
            <Array as="points">
              <mxPoint x="987" y="337" />
            </Array>
          </mxGeometry>
        </mxCell>
      </root>
    </mxGraphModel>
  </diagram>
</mxfile>
